<?xml version="1.0" encoding="UTF-8" standalone="no"?>
<svg
   xmlns:dc="http://purl.org/dc/elements/1.1/"
   xmlns:cc="http://creativecommons.org/ns#"
   xmlns:rdf="http://www.w3.org/1999/02/22-rdf-syntax-ns#"
   xmlns:svg="http://www.w3.org/2000/svg"
   xmlns="http://www.w3.org/2000/svg"
   xmlns:xlink="http://www.w3.org/1999/xlink"
   width="70"
   height="17"
   viewBox="0 0 70 17"
   version="1.1"
   id="svg2489"
   xml:space="preserve"><metadata
     id="metadata1726"><rdf:RDF><cc:Work
         rdf:about=""><dc:format>image/svg+xml</dc:format><dc:type
           rdf:resource="http://purl.org/dc/dcmitype/StillImage" /><dc:title></dc:title></cc:Work></rdf:RDF></metadata><defs
     id="defs2486"><linearGradient
       xlink:href="#linearGradient3693"
       id="linearGradient3695"
       x1="4.0005002"
       y1="3.4290001"
       x2="4.0005002"
       y2="-1.9261664"
       gradientUnits="userSpaceOnUse"
       gradientTransform="matrix(6.7961815,0,0,3.9328586,-1.395814,-0.62082294)" /><linearGradient
       id="linearGradient3693"><stop
         style="stop-color:#00758c;stop-opacity:1"
         offset="0.23950569"
         id="stop3689" /><stop
         style="stop-color:#d2ffff;stop-opacity:1;"
         offset="0.99989998"
         id="stop3691" /></linearGradient><filter
       style="color-interpolation-filters:sRGB"
       id="filter4360"
       x="-0.018681837"
       y="-0.048670925"
       width="1.0373636"
       height="1.0973419"><feGaussianBlur
         stdDeviation="0.077880896"
         id="feGaussianBlur4362" /></filter></defs><g
     id="g2317"><rect
       style="display:inline;opacity:0.6;mix-blend-mode:normal;fill:#000000;fill-opacity:1;stroke:none;stroke-width:0.199337;stroke-linecap:round;stroke-linejoin:round;stroke-dasharray:none;stroke-opacity:1;filter:url(#filter4360)"
       id="rect502-7"
       width="10.005127"
       height="3.8403656"
       x="0.50208056"
       y="0.46352449"
       ry="0.53526121"
       transform="matrix(6.7438298,0,0,3.8817484,-1.4080136,-0.05661913)"
       rx="0.30382282" /><rect
       style="display:inline;fill:url(#linearGradient3695);fill-opacity:1;stroke:#005769;stroke-width:0.999999;stroke-linecap:round;stroke-linejoin:round;stroke-dasharray:none;stroke-opacity:1"
       id="rect502"
       width="67.996666"
       height="15.103615"
       x="0.62753195"
       y="0.65871906"
       ry="2.1050587"
       rx="2.1050587" /><g
       id="g3844"><g
         id="g3831"><text
           xml:space="preserve"
           style="font-weight:600;font-size:11.2675px;line-height:1.25;font-family:'Source Sans Pro';-inkscape-font-specification:'Source Sans Pro Semi-Bold';letter-spacing:-0.85px;fill:#ffffff;stroke-width:0.2"
           x="11.061336"
           y="11.887223"
           id="text2982"><tspan
             id="tspan2980"
             style="fill:#ffffff;stroke-width:0.2"
             x="11.061336"
             y="11.887223">J<tspan
   style="letter-spacing:-0.6px"
   id="tspan3812">O</tspan>O<tspan
   style="letter-spacing:-0.93px"
   id="tspan3712">M</tspan><tspan
   id="tspan3804"
   style="letter-spacing:0.14px">L</tspan><tspan
   id="tspan3814"
   style="letter-spacing:-0.2px">A</tspan><tspan
   style="letter-spacing:0px"
   id="tspan3744">!</tspan></tspan></text><text
           xml:space="preserve"
           style="font-weight:600;font-size:11.2675px;line-height:1.25;font-family:'Source Sans Pro';-inkscape-font-specification:'Source Sans Pro Semi-Bold';letter-spacing:-0.281687px;fill:#ffffff;stroke-width:0.2"
           x="53.210812"
           y="11.887223"
           id="text3104"><tspan
             id="tspan3102"
             style="fill:#ffffff;stroke-width:0.2"
             x="53.210812"
             y="11.887223">4.6</tspan></text></g><path
         d="m 1.9783105,5.1959487 c 0,-0.6065067 0.4881192,-1.0946258 1.089163,-1.0946258 0.5464023,0 0.9926305,0.3988742 1.0782317,0.9143134 0.5937599,-0.1384239 1.2221219,0.010879 1.7575958,0.5464016 L 5.0964457,6.3688927 C 4.7230701,5.9955168 4.3205551,6.0720134 4.0874243,6.3051492 c -0.2604521,0.2604529 -0.2604521,0.6902895 0,0.9507405 L 5.8996576,9.0681237 5.0982679,9.874978 C 3.5009523,8.2867698 4.1930619,8.9697718 3.28057,8.0591011 2.7924497,7.5764454 2.6430998,6.8788727 2.828877,6.2577947 2.3389365,6.1521518 1.9783105,5.7168569 1.9783105,5.1959533 Z M 4.336947,7.3159899 5.1438014,8.1228442 C 5.3259361,7.9407102 6.7775444,6.4891004 6.9596781,6.3051445 7.2201302,6.044694 7.6445029,6.044694 7.904955,6.3051445 8.1380868,6.5382772 8.214583,6.9426141 7.841218,7.314169 L 8.6426095,8.1210218 C 9.2108683,7.5527642 9.3438251,6.8897955 9.1689773,6.277825 9.7008098,6.2031438 10.114253,5.7459939 10.114253,5.1941261 c 0,-0.6046841 -0.4881202,-1.0946246 -1.0891609,-1.0946246 -0.5518689,0 -1.0090245,0.4098011 -1.0836983,0.9398109 C 7.3257792,4.8590001 6.6354919,5.0120004 6.151014,5.4964692 5.8177092,5.8443462 4.8560404,6.7987283 4.3369574,7.3159899 Z M 9.187178,10.088071 C 9.3365237,9.4924924 9.1707902,8.8404518 8.7081659,8.377831 8.4932482,8.1556278 8.7992369,8.4634332 6.8959315,6.561954 L 6.0890782,7.3688083 7.904955,9.1846853 c 0.2604511,0.260453 0.2604511,0.6848243 0,0.9452767 -0.2331308,0.23313 -0.6374701,0.309628 -1.0090235,-0.06374 l -0.8013896,0.806855 c 0.502691,0.550045 1.2385108,0.706681 1.8705183,0.509975 0.1001719,0.499048 0.5409376,0.876067 1.072769,0.876067 0.6010418,0 1.0891618,-0.48812 1.0891618,-1.094627 0,-0.550045 -0.4098017,-1.001738 -0.939813,-1.076412 z M 7.6517888,9.1209391 6.8503981,8.3140848 C 5.2658309,9.8877236 5.9324405,9.23204 5.0345213,10.131783 c -0.2604531,0.260453 -0.6848237,0.260453 -0.9452768,0 C 3.850649,9.8877233 3.7814377,9.4888493 4.1475399,9.1227598 L 3.3461502,8.3159057 C 2.7961045,8.8659507 2.6540406,9.5034203 2.808854,10.106284 c -0.486299,0.109279 -0.8414594,0.544581 -0.8414594,1.060021 0,0.606506 0.4881203,1.094626 1.089161,1.094626 0.5209052,0 0.9562041,-0.360625 1.0673064,-0.850566 0.5955791,0.149344 1.247619,-0.01087 1.7157028,-0.473549 0.5846508,-0.58283 0.2222046,-0.225848 1.8122354,-1.8158769 z"
         id="path3123"
         style="fill:#ffffff;stroke-width:0.199999" /></g></g></svg>
