<?xml version="1.0" encoding="UTF-8" standalone="no"?>
<svg
   xmlns:dc="http://purl.org/dc/elements/1.1/"
   xmlns:cc="http://creativecommons.org/ns#"
   xmlns:rdf="http://www.w3.org/1999/02/22-rdf-syntax-ns#"
   xmlns:svg="http://www.w3.org/2000/svg"
   xmlns="http://www.w3.org/2000/svg"
   xmlns:xlink="http://www.w3.org/1999/xlink"
   width="40"
   height="17"
   viewBox="0 0 10.583333 4.4979165"
   version="1.1"
   id="svg3780">
  <metadata
     id="metadata3116">
    <rdf:RDF>
      <cc:Work
         rdf:about="">
        <dc:format>image/svg+xml</dc:format>
        <dc:type
           rdf:resource="http://purl.org/dc/dcmitype/StillImage" />
        <dc:title></dc:title>
      </cc:Work>
    </rdf:RDF>
  </metadata>
  <defs
     id="defs3777">
    <linearGradient
       xlink:href="#linearGradient3693"
       id="linearGradient3695"
       x1="4.0005002"
       y1="3.4290001"
       x2="4.0005002"
       y2="-1.9261664"
       gradientUnits="userSpaceOnUse"
       gradientTransform="matrix(1.0124405,0,0,1.0405452,-0.15938504,-0.17837222)" />
    <linearGradient
       id="linearGradient3693">
      <stop
         style="stop-color:#00758c;stop-opacity:1"
         offset="0.23950569"
         id="stop3689" />
      <stop
         style="stop-color:#d2ffff;stop-opacity:1"
         offset="0.99989998"
         id="stop3691" />
    </linearGradient>
    <filter
       style="color-interpolation-filters:sRGB"
       id="filter4360"
       x="-0.0186242"
       y="-0.048520762"
       width="1.0372484"
       height="1.0970415">
      <feGaussianBlur
         stdDeviation="0.077640615"
         id="feGaussianBlur4362" />
    </filter>
  </defs>
  <g
     id="g3695">
    <g
       id="g1549">
      <rect
         style="display:inline;opacity:0.875;mix-blend-mode:normal;fill:#000000;fill-opacity:1;stroke:none;stroke-width:0.264583;stroke-linecap:round;stroke-linejoin:round;stroke-dasharray:none;stroke-opacity:1;filter:url(#filter4360)"
         id="rect502-7"
         width="10.005127"
         height="3.8403656"
         x="0.50208056"
         y="0.46352449"
         ry="0.53526121"
         transform="matrix(1.0128001,0,0,1.0270459,-0.21259344,-0.108476)"
         rx="0.53526121" />
      <rect
         style="display:inline;fill:url(#linearGradient3695);fill-opacity:1;stroke:#005769;stroke-width:0.264583;stroke-linecap:round;stroke-linejoin:round;stroke-dasharray:none;stroke-opacity:1"
         id="rect502"
         width="10.129597"
         height="3.996074"
         x="0.14203677"
         y="0.16016558"
         ry="0.55696344"
         rx="0.55696344" />
      <g
         id="g1539">
        <path
           d="m 0.53586834,0.9943076 c 0,-0.21830775 0.1756959,-0.39400284 0.39203621,-0.39400284 0.19667345,0 0.35729085,0.14357211 0.38810305,0.32910058 0.213719,-0.0498237 0.4398938,0.00394 0.6326342,0.19667386 L 1.6582202,1.4165012 C 1.5238268,1.2821078 1.3789432,1.3096416 1.2950289,1.3935552 c -0.093747,0.093747 -0.093747,0.2484648 0,0.3422125 L 1.9473309,2.3880694 1.6588758,2.678491 C 1.0839324,2.106826 1.3330525,2.3526685 1.0046072,2.0248786 0.82891212,1.8511499 0.77515452,1.6000629 0.84202363,1.3765104 0.66567295,1.3384868 0.53586834,1.1818034 0.53586834,0.9943076 Z M 1.3848433,1.7574022 1.6752654,2.0478238 c 0.065558,-0.065559 0.5880548,-0.5880549 0.6536126,-0.6542683 0.093747,-0.093747 0.2464978,-0.093747 0.3402458,0 0.083915,0.083916 0.1114468,0.229453 -0.022945,0.3631911 L 2.9346332,2.0471684 C 3.139174,1.8426275 3.1870313,1.6039966 3.1240957,1.3837219 3.3155251,1.3568432 3.4643416,1.1922925 3.4643416,0.99365201 c 0,-0.21765216 -0.1756959,-0.39400264 -0.3920367,-0.39400264 -0.1986408,0 -0.363191,0.14750441 -0.3900698,0.33827868 C 2.4606494,0.8730258 2.2121845,0.92809377 2.0378007,1.1024781 1.9178293,1.2276939 1.5716834,1.5712174 1.3848433,1.7574022 Z M 3.1306516,2.7551941 C 3.184409,2.5408197 3.1247541,2.3061223 2.9582344,2.1396049 2.8808758,2.0596246 2.9910133,2.1704175 2.3059329,1.4859921 l -0.2904221,0.2904218 0.653613,0.6536129 c 0.093747,0.093747 0.093747,0.246498 0,0.3402457 -0.083915,0.083915 -0.2294529,0.1114488 -0.363191,-0.022945 L 2.0174777,3.037749 c 0.1809404,0.1979857 0.445794,0.2543645 0.6732801,0.1835626 0.036058,0.1796282 0.1947064,0.3153336 0.3861364,0.3153336 0.2163414,0 0.3920366,-0.175696 0.3920366,-0.3940034 0,-0.1979858 -0.1475047,-0.3605689 -0.3382792,-0.3874477 z M 2.5779984,2.4070816 2.2895433,2.1166599 C 1.7191889,2.6830805 1.9591311,2.4470717 1.6359304,2.7709281 c -0.093747,0.093749 -0.2464976,0.093749 -0.3402457,0 C 1.2098053,2.6830793 1.1848927,2.5395086 1.3166628,2.407737 L 1.0282083,2.1173154 C 0.83022319,2.3153003 0.77908803,2.5447531 0.83481229,2.7617502 0.65977288,2.8010843 0.53193492,2.9577681 0.53193492,3.1432973 c 0,0.2183082 0.17569571,0.3940032 0.39203612,0.3940032 0.18749676,0 0.34417936,-0.1298044 0.38416946,-0.3061555 C 1.5225152,3.284903 1.7572127,3.227205 1.925697,3.0606935 2.1361377,2.8509082 2.005678,2.9794015 2.5779984,2.4070816 Z"
           id="path17"
           style="display:inline;fill:#ffffff;stroke-width:0.00655578" />
        <text
           xml:space="preserve"
           style="font-style:normal;font-variant:normal;font-weight:bold;font-stretch:normal;font-size:4.39288px;font-family:'Source Sans Pro';-inkscape-font-specification:'Source Sans Pro Bold';display:inline;fill:#000055;fill-opacity:1;stroke-width:0.407176"
           x="4.183989"
           y="3.4462376"
           id="text4176"><tspan
             id="tspan4174"
             style="font-style:normal;font-variant:normal;font-weight:600;font-stretch:normal;font-size:4.39288px;font-family:'Source Sans Pro';-inkscape-font-specification:'Source Sans Pro Semi-Bold';fill:#fffeff;fill-opacity:1;stroke-width:0.407176"
             x="4.183989"
             y="3.4462376">4.6</tspan></text>
      </g>
    </g>
  </g>
</svg>
